<svg width="88" height="100" viewBox="0 0 88 100" fill="none" xmlns="http://www.w3.org/2000/svg">
<path opacity="0.5" d="M44 0C59.5273 0 72.125 12.5918 72.125 28.125V37.5H75.25C82.1445 37.5 87.75 43.1055 87.75 50V87.5C87.75 94.3945 82.1445 100 75.25 100H12.75C5.8457 100 0.25 94.3945 0.25 87.5V50C0.25 43.1055 5.8457 37.5 12.75 37.5H15.875V28.125C15.875 12.5918 28.4727 0 44 0ZM44 12.5C35.3672 12.5 28.375 19.4961 28.375 28.125V37.5H59.625V28.125C59.625 19.4961 52.6328 12.5 44 12.5ZM50.25 62.5C50.25 59.043 47.457 56.25 44 56.25C40.543 56.25 37.75 59.043 37.75 62.5V75C37.75 78.457 40.543 81.25 44 81.25C47.457 81.25 50.25 78.457 50.25 75V62.5Z" fill="url(#paint0_radial_729_32086)"/>
<defs>
<radialGradient id="paint0_radial_729_32086" cx="0" cy="0" r="1" gradientUnits="userSpaceOnUse" gradientTransform="translate(44 25.5) rotate(90) scale(74.5 65.1875)">
<stop offset="0.296875" stop-color="#509574"/>
<stop offset="1" stop-color="#999999"/>
</radialGradient>
</defs>
</svg>
