<svg width="340" height="158" viewBox="0 0 340 158" fill="none" xmlns="http://www.w3.org/2000/svg">
<g opacity="0.5">
<path d="M27.8428 90.0448H54.3033V69.7057C54.3033 65.6247 54.435 60.9514 54.6983 55.6856C55.0932 50.2882 55.3565 45.6148 55.4881 41.6654H54.6983C53.1185 45.0882 51.473 48.5768 49.7616 52.1312C48.0502 55.6856 46.273 59.24 44.43 62.7944L27.8428 90.0448ZM54.3033 142.176V112.161H0V92.2169L45.8123 16.7846H81.3563V90.0448H95.7714V112.161H81.3563V142.176H54.3033Z" fill="url(#paint0_radial_729_32093)"/>
<path d="M152.705 144.546C139.277 144.546 128.417 138.951 120.123 127.761C111.961 116.571 107.88 100.313 107.88 78.9867C107.88 57.6603 111.961 41.5996 120.123 30.8048C128.417 19.8783 139.277 14.415 152.705 14.415C166.133 14.415 176.928 19.8783 185.09 30.8048C193.383 41.5996 197.53 57.6603 197.53 78.9867C197.53 100.313 193.383 116.571 185.09 127.761C176.928 138.951 166.133 144.546 152.705 144.546ZM152.705 122.034C155.996 122.034 158.958 120.85 161.591 118.48C164.224 115.979 166.264 111.634 167.712 105.447C169.292 99.2599 170.082 90.4397 170.082 78.9867C170.082 67.5336 169.292 58.7792 167.712 52.7236C166.264 46.6679 164.224 42.5211 161.591 40.2832C158.958 38.0452 155.996 36.9262 152.705 36.9262C149.546 36.9262 146.649 38.0452 144.016 40.2832C141.384 42.5211 139.277 46.6679 137.698 52.7236C136.118 58.7792 135.328 67.5336 135.328 78.9867C135.328 90.4397 136.118 99.2599 137.698 105.447C139.277 111.634 141.384 115.979 144.016 118.48C146.649 120.85 149.546 122.034 152.705 122.034Z" fill="url(#paint1_radial_729_32093)"/>
</g>
<path opacity="0.5" d="M242.179 75.8328L263.738 91.1744L275.53 74.6028C277.896 71.2778 280.713 67.5464 283.981 63.4087C287.432 59.24 290.356 55.585 292.753 52.4435L292.109 51.9856C288.838 53.8584 285.474 55.7467 282.019 57.6505C278.564 59.5542 275.055 61.4198 271.493 63.2473L242.179 75.8328ZM233.512 133.649L250.915 109.194L206.67 77.7094L218.234 61.4596L299.295 26.5615L328.255 47.1696L285.779 106.859L297.524 115.217L284.702 133.237L272.957 124.879L255.554 149.334L233.512 133.649Z" fill="url(#paint2_radial_729_32093)"/>
<defs>
<radialGradient id="paint0_radial_729_32093" cx="0" cy="0" r="1" gradientUnits="userSpaceOnUse" gradientTransform="translate(152.737 37.2422) rotate(90) scale(105.921 255.976)">
<stop offset="0.296875" stop-color="#509574"/>
<stop offset="1" stop-color="#999999"/>
</radialGradient>
<radialGradient id="paint1_radial_729_32093" cx="0" cy="0" r="1" gradientUnits="userSpaceOnUse" gradientTransform="translate(152.737 37.2422) rotate(90) scale(105.921 255.976)">
<stop offset="0.296875" stop-color="#509574"/>
<stop offset="1" stop-color="#999999"/>
</radialGradient>
<radialGradient id="paint2_radial_729_32093" cx="0" cy="0" r="1" gradientUnits="userSpaceOnUse" gradientTransform="translate(204.55 -15.7506) rotate(125.436) scale(105.921 255.976)">
<stop offset="0.296875" stop-color="#509574"/>
<stop offset="1" stop-color="#999999"/>
</radialGradient>
</defs>
</svg>
