<svg width="115" height="20" viewBox="0 0 115 20" fill="none" xmlns="http://www.w3.org/2000/svg">
<path d="M17.6956 9.30354C17.8609 8.85553 17.734 8.17781 17.4162 7.80973L12.3793 1.97787C12.0721 1.62217 11.7025 1.69131 11.5501 2.13299L8.91016 9.786L14.9429 16.7709L17.6956 9.30354Z" fill="#31445A"/>
<path d="M7.18393 18.4017C6.71827 18.4997 6.06758 18.2753 5.74966 17.9072L0.712786 12.0754C0.405576 11.7197 0.526502 11.3644 0.984086 11.2782L8.91267 9.78467L14.9454 16.7695L7.18393 18.4017Z" fill="#1D2A3C"/>
<path d="M18.3975 9.1364C18.5677 8.69047 18.4456 8.01619 18.1281 7.64875L13.0904 1.81575C12.783 1.45984 12.4085 1.52754 12.2505 1.9676L9.28711 10.2186L15.3198 17.2034L18.3975 9.1364Z" fill="#3A506B"/>
<path d="M3.73582 2.69411C3.28796 2.79352 2.81376 3.20309 2.65023 3.63174L0.410068 9.50351C0.234581 9.96343 0.481607 10.2707 0.955997 10.1824L7.25629 9.01111C7.7249 8.92397 8.23379 8.48444 8.38817 8.03346L10.4634 1.97109C10.6197 1.51458 10.3517 1.22548 9.87118 1.33216L3.73582 2.69411Z" fill="#5BA983"/>
<path d="M3.3823 2.28413C2.93444 2.38355 2.46025 2.79312 2.29671 3.22176L0.0565524 9.09353C-0.118934 9.55347 0.128091 9.86068 0.60248 9.77249L6.90277 8.60113C7.37139 8.51401 7.88027 8.07445 8.03466 7.62348L10.1099 1.56112C10.2662 1.10461 9.99822 0.81551 9.51767 0.922183L3.3823 2.28413Z" fill="#64BA91"/>
<path d="M6.8922 19.0744C6.42626 19.1778 5.7769 18.959 5.45956 18.5915L0.4217 12.7585C0.114298 12.4026 0.235782 12.042 0.694138 11.9496L9.28849 10.2185L15.3211 17.2033L6.8922 19.0744Z" fill="#263548"/>
<path d="M40.0606 9.88546C40.0606 11.875 39.5212 13.398 38.4424 14.4542C37.3691 15.5045 35.8221 16.029 33.8014 16.029H30.4746V3.97104H34.1546C36.0219 3.97104 37.4731 4.49074 38.5081 5.53013C39.543 6.56953 40.0606 8.0213 40.0606 9.88546ZM38.582 9.9349C38.582 8.36134 38.1877 7.17726 37.3991 6.38022C36.6161 5.58199 35.4497 5.18407 33.8999 5.18407H31.871V14.8172H33.5713C35.2361 14.8172 36.4874 14.4072 37.3252 13.5885C38.1631 12.7637 38.582 11.5458 38.582 9.9349Z" fill="black"/>
<path d="M51.1242 16.029H44.4297V3.97104H51.1242V5.21662H45.826V9.1017H50.8039V10.3389H45.826V14.7762H51.1242V16.029Z" fill="black"/>
<path d="M55.4746 16.029V3.97104H56.871V14.7593H62.1692V16.029H55.4746Z" fill="black"/>
<path d="M65.8984 16.029V3.97104H67.2948V16.029H65.8984Z" fill="black"/>
<path d="M79.1366 3.97104H80.6403L76.3114 16.029H74.9312L70.627 3.97104H72.1055L74.8654 11.7738C75.1831 12.6697 75.4349 13.5415 75.6211 14.3879C75.8183 13.4968 76.0757 12.6094 76.3934 11.7243L79.1366 3.97104Z" fill="black"/>
<path d="M90.677 16.029H83.9824V3.97104H90.677V5.21662H85.3787V9.1017H90.3563V10.3389H85.3787V14.7762H90.677V16.029Z" fill="black"/>
<path d="M96.4237 11.0153V16.029H95.0273V3.97104H98.3216C99.7951 3.97104 100.881 4.2544 101.582 4.82113C102.289 5.38785 102.642 6.23915 102.642 7.37742C102.642 8.97269 101.838 10.0495 100.227 10.6102L103.488 16.029H101.838L98.9293 11.0153H96.4237ZM96.4237 9.81071H98.3373C99.3236 9.81071 100.046 9.61538 100.506 9.2247C100.966 8.8292 101.196 8.23836 101.196 7.45218C101.196 6.65514 100.961 6.07998 100.49 5.72789C100.024 5.37579 99.2742 5.19974 98.2396 5.19974H96.4237V9.81071Z" fill="black"/>
<path d="M110.166 10L113.37 3.97104H114.881L110.873 11.3529V16.029H109.46V11.4192L105.459 3.97104H106.987L110.166 10Z" fill="black"/>
</svg>
