<svg width="18" height="14" viewBox="0 0 18 14" fill="none" xmlns="http://www.w3.org/2000/svg">
<g clip-path="url(#clip0_882_14808)">
<path d="M12.25 4.375H1.75C1.26684 4.375 0.875 4.76602 0.875 5.25V12.25C0.875 12.734 1.26684 13.125 1.75 13.125H9.84922C10.1254 13.4559 10.4426 13.7512 10.7953 14H1.75C0.783399 14 0 13.2152 0 12.25V5.25C0 4.28477 0.783399 3.5 1.75 3.5H12.25C13.2152 3.5 14 4.28477 14 5.25V5.26914C13.8551 5.25547 13.7102 5.25 13.5625 5.25C13.4148 5.25 13.2699 5.25547 13.125 5.26914V5.25C13.125 4.76602 12.734 4.375 12.25 4.375ZM12.25 1.75C12.4906 1.75 12.6875 1.94578 12.6875 2.1875C12.6875 2.42922 12.4906 2.625 12.25 2.625H1.75C1.50828 2.625 1.3125 2.42922 1.3125 2.1875C1.3125 1.94578 1.50828 1.75 1.75 1.75H12.25ZM10.9375 0C11.1781 0 11.375 0.195891 11.375 0.4375C11.375 0.679219 11.1781 0.875 10.9375 0.875H3.0625C2.82188 0.875 2.625 0.679219 2.625 0.4375C2.625 0.195891 2.82188 0 3.0625 0H10.9375ZM12.0312 9.40625C12.0312 8.56133 12.7176 7.875 13.5625 7.875C14.4074 7.875 15.0938 8.56133 15.0938 9.40625C15.0938 10.2512 14.4074 10.9375 13.5625 10.9375C12.7176 10.9375 12.0312 10.2512 12.0312 9.40625ZM13.5625 10.0625C13.9262 10.0625 14.2188 9.76992 14.2188 9.40625C14.2188 9.04258 13.9262 8.75 13.5625 8.75C13.1988 8.75 12.9062 9.04258 12.9062 9.40625C12.9062 9.76992 13.1988 10.0625 13.5625 10.0625ZM17.5 10.0625C17.5 12.2363 15.7363 14 13.5625 14C11.3887 14 9.625 12.2363 9.625 10.0625C9.625 7.88867 11.3887 6.125 13.5625 6.125C15.7363 6.125 17.5 7.88867 17.5 10.0625ZM14.3336 12.25H12.7914C12.4523 12.25 12.1379 12.4004 11.9219 12.6492C12.3949 12.95 12.9582 13.125 13.5625 13.125C14.1668 13.125 14.7301 12.95 15.1785 12.6492C14.9898 12.4004 14.6727 12.25 14.3336 12.25ZM16.625 10.0625C16.625 8.36992 15.2551 7 13.5625 7C11.8699 7 10.5 8.36992 10.5 10.0625C10.5 10.8336 10.7871 11.5418 11.2574 12.0805C11.6375 11.6375 12.1926 11.375 12.7914 11.375H14.3336C14.9324 11.375 15.4875 11.6375 15.8676 12.0805C16.3379 11.5418 16.625 10.8336 16.625 10.0625Z" fill="black"/>
</g>
<defs>
<clipPath id="clip0_882_14808">
<rect width="17.5" height="14" fill="white"/>
</clipPath>
</defs>
</svg>
