<svg width="8" height="8" viewBox="0 0 8 8" fill="none" xmlns="http://www.w3.org/2000/svg">
<path d="M5.20159 0.292945C5.56012 -0.0976484 6.14238 -0.0976484 6.50091 0.292945L7.06596 0.909039C7.42449 1.29951 7.42449 1.93326 7.06596 2.32388L6.37184 3.08013L4.50747 1.0492L5.20159 0.292945ZM6.04773 3.43326L2.70333 7.07545C2.55418 7.23795 2.36918 7.35826 2.16697 7.42232L0.441279 7.97545C0.320525 8.01451 0.189876 7.97857 0.100816 7.86763C0.0117538 7.78482 -0.0215439 7.64263 0.0139939 7.50982L0.52159 5.63013C0.58125 5.40982 0.690674 5.20826 0.839967 5.04576L4.18336 1.40263L6.04773 3.43326Z" fill="#999999"/>
</svg>
