<svg width="15" height="16" viewBox="0 0 15 16" fill="none" xmlns="http://www.w3.org/2000/svg">
<path d="M10.3889 4.2V3.66C10.3889 2.90393 10.3889 2.52589 10.2315 2.23711C10.093 1.98309 9.872 1.77657 9.60021 1.64714C9.29122 1.5 8.88674 1.5 8.07778 1.5H6.92222C6.11326 1.5 5.70878 1.5 5.39979 1.64714C5.128 1.77657 4.90703 1.98309 4.76855 2.23711C4.61111 2.52589 4.61111 2.90393 4.61111 3.66V4.2M6.05556 7.9125V11.2875M8.94444 7.9125V11.2875M1 4.2H14M12.5556 4.2V11.76C12.5556 12.8941 12.5556 13.4612 12.3194 13.8943C12.1117 14.2754 11.7802 14.5851 11.3725 14.7793C10.9091 15 10.3023 15 9.08889 15H5.91111C4.69766 15 4.09094 15 3.62747 14.7793C3.21978 14.5851 2.88832 14.2754 2.6806 13.8943C2.44444 13.4612 2.44444 12.8941 2.44444 11.76V4.2" stroke="#848080" stroke-width="1.5" stroke-linecap="round" stroke-linejoin="round"/>
</svg>
