<svg width="14" height="14" viewBox="0 0 14 14" fill="none" xmlns="http://www.w3.org/2000/svg">
<g clip-path="url(#clip0_762_32707)">
<path d="M7 0C3.13359 0 0 3.13359 0 7C0 10.8664 3.13359 14 7 14C10.8664 14 14 10.8664 14 7C14 3.13359 10.8664 0 7 0ZM6.34375 4.15625C6.34375 3.79531 6.63906 3.5 7 3.5C7.36094 3.5 7.65625 3.79395 7.65625 4.15625V7.65625C7.65625 8.01855 7.3623 8.3125 7 8.3125C6.6377 8.3125 6.34375 8.01992 6.34375 7.65625V4.15625ZM7 10.9375C6.52531 10.9375 6.14031 10.5525 6.14031 10.0778C6.14031 9.60312 6.52504 9.21812 7 9.21812C7.47496 9.21812 7.85969 9.60312 7.85969 10.0778C7.85859 10.552 7.47578 10.9375 7 10.9375Z" fill="#C62828"/>
</g>
<defs>
<clipPath id="clip0_762_32707">
<rect width="14" height="14" fill="white"/>
</clipPath>
</defs>
</svg>
