<svg width="14" height="14" viewBox="0 0 14 14" fill="none" xmlns="http://www.w3.org/2000/svg">
<mask id="path-1-inside-1_2402_28700" fill="white">
<path d="M14 7C14 10.866 10.866 14 7 14C3.13401 14 0 10.866 0 7C0 3.13401 3.13401 0 7 0C10.866 0 14 3.13401 14 7ZM2.1 7C2.1 9.70619 4.2938 11.9 7 11.9C9.70619 11.9 11.9 9.70619 11.9 7C11.9 4.2938 9.70619 2.1 7 2.1C4.2938 2.1 2.1 4.2938 2.1 7Z"/>
</mask>
<path d="M14 7C14 10.866 10.866 14 7 14C3.13401 14 0 10.866 0 7C0 3.13401 3.13401 0 7 0C10.866 0 14 3.13401 14 7ZM2.1 7C2.1 9.70619 4.2938 11.9 7 11.9C9.70619 11.9 11.9 9.70619 11.9 7C11.9 4.2938 9.70619 2.1 7 2.1C4.2938 2.1 2.1 4.2938 2.1 7Z" fill="#D9D9D9" stroke="#E3E3E3" stroke-width="4" stroke-linecap="round" stroke-linejoin="round" mask="url(#path-1-inside-1_2402_28700)"/>
<mask id="path-2-inside-2_2402_28700" fill="white">
<path d="M8.7701 1.3194C8.94262 0.765756 9.53618 0.449869 10.0578 0.703188C11.0317 1.17613 11.8871 1.87081 12.5523 2.7371C13.4316 3.88237 13.9352 5.27154 13.9942 6.71423C14.0531 8.15692 13.6645 9.58254 12.8815 10.7957C12.0986 12.0089 10.9596 12.9503 9.62074 13.4909C8.28186 14.0315 6.80857 14.1448 5.40276 13.8153C3.99696 13.4859 2.72743 12.7297 1.76815 11.6506C0.808875 10.5714 0.206791 9.22197 0.0444076 7.78723C-0.07842 6.70199 0.054874 5.6081 0.427371 4.59155C0.626892 4.04705 1.27338 3.86226 1.78194 4.14092C2.2905 4.41957 2.46449 5.05694 2.30036 5.61313C2.11598 6.23796 2.05703 6.89676 2.13109 7.55106C2.24475 8.55538 2.66621 9.49997 3.33771 10.2554C4.0092 11.0108 4.89787 11.5401 5.88193 11.7707C6.866 12.0014 7.8973 11.922 8.83452 11.5436C9.77174 11.1652 10.569 10.5062 11.1171 9.65701C11.6651 8.80778 11.9372 7.80984 11.8959 6.79996C11.8547 5.79008 11.5021 4.81766 10.8866 4.01597C10.4856 3.49367 9.98574 3.06049 9.41921 2.73885C8.91492 2.45254 8.59759 1.87304 8.7701 1.3194Z"/>
</mask>
<path d="M8.7701 1.3194C8.94262 0.765756 9.53618 0.449869 10.0578 0.703188C11.0317 1.17613 11.8871 1.87081 12.5523 2.7371C13.4316 3.88237 13.9352 5.27154 13.9942 6.71423C14.0531 8.15692 13.6645 9.58254 12.8815 10.7957C12.0986 12.0089 10.9596 12.9503 9.62074 13.4909C8.28186 14.0315 6.80857 14.1448 5.40276 13.8153C3.99696 13.4859 2.72743 12.7297 1.76815 11.6506C0.808875 10.5714 0.206791 9.22197 0.0444076 7.78723C-0.07842 6.70199 0.054874 5.6081 0.427371 4.59155C0.626892 4.04705 1.27338 3.86226 1.78194 4.14092C2.2905 4.41957 2.46449 5.05694 2.30036 5.61313C2.11598 6.23796 2.05703 6.89676 2.13109 7.55106C2.24475 8.55538 2.66621 9.49997 3.33771 10.2554C4.0092 11.0108 4.89787 11.5401 5.88193 11.7707C6.866 12.0014 7.8973 11.922 8.83452 11.5436C9.77174 11.1652 10.569 10.5062 11.1171 9.65701C11.6651 8.80778 11.9372 7.80984 11.8959 6.79996C11.8547 5.79008 11.5021 4.81766 10.8866 4.01597C10.4856 3.49367 9.98574 3.06049 9.41921 2.73885C8.91492 2.45254 8.59759 1.87304 8.7701 1.3194Z" fill="#D9D9D9" stroke="#6B6A69" stroke-width="4" stroke-linecap="round" stroke-linejoin="round" mask="url(#path-2-inside-2_2402_28700)"/>
</svg>
