<svg width="11" height="15" viewBox="0 0 11 15" fill="none" xmlns="http://www.w3.org/2000/svg">
<g clip-path="url(#clip0_2396_28546)">
<rect width="11" height="14" transform="translate(0 0.5)" fill="white"/>
<path d="M11 4H7.33333V0.5L11 4ZM7.33333 4.875H11V13.1875C11 13.9124 10.3844 14.5 9.625 14.5H1.375C0.615599 14.5 0 13.9121 0 13.1875V1.8125C0 1.08762 0.615599 0.5 1.375 0.5H6.41667L6.41678 4C6.41667 4.48398 6.8263 4.875 7.33333 4.875ZM7.04115 7.72969L4.7744 10.2546L3.92391 9.44277C3.65535 9.18643 3.22036 9.18643 2.95167 9.44277C2.68297 9.69912 2.68311 10.1143 2.95167 10.3708L4.32667 11.6833C4.45557 11.8064 4.63089 11.8756 4.81279 11.8756C4.82174 11.8756 4.83069 11.8756 4.83875 11.8747C5.03033 11.8679 5.21028 11.785 5.3346 11.6466L8.08461 8.58406C8.33168 8.30898 8.29856 7.89445 8.0103 7.65875C7.72292 7.42344 7.2875 7.45352 7.04115 7.72969Z" fill="#99BB77"/>
</g>
<defs>
<clipPath id="clip0_2396_28546">
<rect width="11" height="14" fill="white" transform="translate(0 0.5)"/>
</clipPath>
</defs>
</svg>
