<svg width="15" height="14" viewBox="0 0 15 14" fill="none" xmlns="http://www.w3.org/2000/svg">
<path d="M7.41464 5.56509V8.06509M7.41464 10.5651H7.42089M6.54922 2.37241L1.40866 11.2516C1.12353 11.744 0.98097 11.9903 1.00204 12.1924C1.02042 12.3687 1.11278 12.5289 1.25612 12.6331C1.42047 12.7526 1.70501 12.7526 2.27409 12.7526H12.5552C13.1243 12.7526 13.4088 12.7526 13.5732 12.6331C13.7165 12.5289 13.8089 12.3687 13.8272 12.1924C13.8483 11.9903 13.7057 11.744 13.4206 11.2515L8.28007 2.37241C7.99596 1.88168 7.85391 1.63632 7.66858 1.55391C7.50692 1.48203 7.32237 1.48203 7.16071 1.55391C6.97537 1.63632 6.83332 1.88168 6.54922 2.37241Z" stroke="#AD3232" stroke-width="1.5" stroke-linecap="round" stroke-linejoin="round"/>
</svg>
