<svg width="315" height="311" viewBox="0 0 315 311" fill="none" xmlns="http://www.w3.org/2000/svg">
<path d="M313.687 140.437C316.589 132.834 314.507 121.338 309.094 115.073L223.202 15.6219C217.962 9.55368 211.576 10.708 208.883 18.2109L158.357 158.887L261.213 277.977L313.687 140.437Z" fill="#3A506B"/>
<path d="M57.6673 23.6072C50.0314 25.3023 41.9465 32.2852 39.1583 39.5935L0.964203 139.705C-2.0278 147.547 2.18391 152.785 10.2721 151.282L117.69 131.31C125.68 129.825 134.356 122.331 136.989 114.642L172.371 11.28C175.036 3.49662 170.467 -1.43241 162.274 0.386337L57.6673 23.6072Z" fill="#64BA91"/>
<path d="M117.496 309.879C109.552 311.642 98.4801 307.911 93.0696 301.646L7.17539 202.195C1.93426 196.127 4.00553 189.978 11.8204 188.404L158.352 158.888L261.206 277.977L117.496 309.879Z" fill="#263548"/>
</svg>
